<?xml version="1.0" standalone="no"?>
<!DOCTYPE svg PUBLIC "-//W3C//DTD SVG 20010904//EN"
 "http://www.w3.org/TR/2001/REC-SVG-20010904/DTD/svg10.dtd">
<svg version="1.0" xmlns="http://www.w3.org/2000/svg"
 width="42.000000pt" height="45.000000pt" viewBox="0 0 42.000000 45.000000"
 preserveAspectRatio="xMidYMid meet">
<metadata>
Created by potrace 1.16, written by Peter Selinger 2001-2019
</metadata>
<g transform="translate(0.000000,45.000000) scale(0.100000,-0.100000)"
fill="#000000" stroke="none">
<path d="M323 431 c-26 -22 -30 -41 -8 -41 8 0 15 -5 15 -10 0 -6 9 -23 20
-38 19 -25 19 -32 8 -82 -11 -46 -23 -65 -70 -112 -45 -45 -68 -60 -113 -74
-56 -16 -58 -16 -78 5 l-21 21 18 106 c10 59 24 122 32 140 8 18 14 38 14 44
0 17 -56 11 -73 -7 -26 -30 -67 -183 -67 -251 0 -54 4 -66 29 -94 26 -30 32
-32 94 -31 82 1 150 37 208 109 61 77 82 129 82 205 0 108 -38 154 -90 110z"/>
</g>
</svg>
