<?xml version="1.0" standalone="no"?>
<!DOCTYPE svg PUBLIC "-//W3C//DTD SVG 20010904//EN"
 "http://www.w3.org/TR/2001/REC-SVG-20010904/DTD/svg10.dtd">
<svg version="1.0" xmlns="http://www.w3.org/2000/svg"
 width="48.000000pt" height="45.000000pt" viewBox="0 0 48.000000 45.000000"
 preserveAspectRatio="xMidYMid meet">
<metadata>
Created by potrace 1.16, written by Peter Selinger 2001-2019
</metadata>
<g transform="translate(0.000000,45.000000) scale(0.100000,-0.100000)"
fill="#000000" stroke="none">
<path d="M10 435 c-10 -12 -10 -21 -1 -41 6 -15 11 -81 11 -162 1 -129 10
-215 24 -229 24 -24 198 122 294 247 56 73 119 140 132 140 6 0 10 10 8 23 -2
17 -10 23 -39 25 -32 3 -38 -1 -45 -22 -5 -13 -27 -44 -49 -68 -22 -24 -55
-63 -74 -88 -42 -54 -147 -140 -173 -140 -20 0 -23 30 -19 190 1 41 -2 89 -7
105 -10 34 -41 45 -62 20z"/>
</g>
</svg>
