<?xml version="1.0" standalone="no"?>
<!DOCTYPE svg PUBLIC "-//W3C//DTD SVG 20010904//EN"
 "http://www.w3.org/TR/2001/REC-SVG-20010904/DTD/svg10.dtd">
<svg version="1.0" xmlns="http://www.w3.org/2000/svg"
 width="53.000000pt" height="55.000000pt" viewBox="0 0 53.000000 55.000000"
 preserveAspectRatio="xMidYMid meet">
<metadata>
Created by potrace 1.16, written by Peter Selinger 2001-2019
</metadata>
<g transform="translate(0.000000,55.000000) scale(0.100000,-0.100000)"
fill="#000000" stroke="none">
<path d="M401 531 c-6 -10 -22 -22 -36 -25 -38 -10 -32 -36 9 -36 18 0 47 -5
65 -11 28 -10 31 -15 31 -52 0 -49 -38 -163 -69 -205 -11 -17 -21 -34 -21 -39
0 -12 -56 -63 -70 -63 -10 0 -11 20 -5 82 12 141 13 133 -15 136 -20 2 -40
-13 -95 -68 -38 -38 -78 -70 -89 -70 -16 0 -18 5 -12 43 4 23 9 79 13 125 6
82 6 82 -19 82 -27 0 -88 -57 -88 -83 0 -9 9 -21 20 -27 25 -13 25 -40 0 -150
-26 -115 -26 -130 4 -130 17 0 50 24 103 72 43 40 80 76 81 80 2 4 10 8 18 8
11 0 14 -17 14 -74 0 -124 21 -147 104 -112 110 46 174 175 179 361 2 92 0
103 -23 137 -20 31 -31 38 -57 38 -21 0 -36 -6 -42 -19z"/>
</g>
</svg>
