<?xml version="1.0" standalone="no"?>
<!DOCTYPE svg PUBLIC "-//W3C//DTD SVG 20010904//EN"
 "http://www.w3.org/TR/2001/REC-SVG-20010904/DTD/svg10.dtd">
<svg version="1.0" xmlns="http://www.w3.org/2000/svg"
 width="64.000000pt" height="69.000000pt" viewBox="0 0 64.000000 69.000000"
 preserveAspectRatio="xMidYMid meet">
<metadata>
Created by potrace 1.16, written by Peter Selinger 2001-2019
</metadata>
<g transform="translate(0.000000,69.000000) scale(0.100000,-0.100000)"
fill="#000000" stroke="none">
<path d="M210 676 c0 -8 7 -21 15 -30 8 -8 15 -18 15 -22 0 -5 25 -48 56 -96
35 -55 53 -94 50 -105 -3 -10 -58 -72 -122 -138 -204 -212 -224 -235 -224
-261 0 -52 72 -17 125 61 28 40 252 265 265 265 11 0 78 -91 122 -164 21 -35
33 -46 53 -46 18 0 25 5 25 20 0 10 -6 23 -13 27 -13 9 -38 62 -58 128 -7 22
-20 53 -30 70 -11 16 -19 36 -19 44 0 24 108 121 135 121 18 0 26 7 31 25 10
39 -2 55 -38 55 -27 0 -43 -11 -94 -65 -34 -36 -66 -65 -70 -65 -5 0 -26 27
-47 59 -68 106 -95 131 -138 131 -27 0 -39 -4 -39 -14z"/>
</g>
</svg>
