<?xml version="1.0" standalone="no"?>
<!DOCTYPE svg PUBLIC "-//W3C//DTD SVG 20010904//EN"
 "http://www.w3.org/TR/2001/REC-SVG-20010904/DTD/svg10.dtd">
<svg version="1.0" xmlns="http://www.w3.org/2000/svg"
 width="49.000000pt" height="57.000000pt" viewBox="0 0 49.000000 57.000000"
 preserveAspectRatio="xMidYMid meet">
<metadata>
Created by potrace 1.16, written by Peter Selinger 2001-2019
</metadata>
<g transform="translate(0.000000,57.000000) scale(0.100000,-0.100000)"
fill="#000000" stroke="none">
<path d="M438 556 c-10 -7 -18 -18 -18 -25 0 -6 -4 -11 -10 -11 -5 0 -10 -6
-10 -13 0 -20 -100 -131 -121 -135 -13 -2 -19 5 -23 30 -3 18 -8 51 -11 73
-15 93 -75 118 -75 31 0 -12 4 -26 9 -32 4 -5 13 -47 20 -94 6 -47 14 -94 16
-105 4 -15 -17 -44 -87 -118 -52 -53 -102 -97 -111 -97 -24 0 -19 -38 6 -54
26 -17 73 16 147 102 34 40 77 83 96 95 18 12 34 28 34 35 0 16 19 36 41 44 9
4 27 28 39 54 13 26 35 61 50 78 39 44 62 93 58 124 -3 30 -25 38 -50 18z"/>
</g>
</svg>
