<?xml version="1.0" standalone="no"?>
<!DOCTYPE svg PUBLIC "-//W3C//DTD SVG 20010904//EN"
 "http://www.w3.org/TR/2001/REC-SVG-20010904/DTD/svg10.dtd">
<svg version="1.0" xmlns="http://www.w3.org/2000/svg"
 width="57.000000pt" height="45.000000pt" viewBox="0 0 57.000000 45.000000"
 preserveAspectRatio="xMidYMid meet">
<metadata>
Created by potrace 1.16, written by Peter Selinger 2001-2019
</metadata>
<g transform="translate(0.000000,45.000000) scale(0.100000,-0.100000)"
fill="#000000" stroke="none">
<path d="M365 442 c-2 -2 -64 -5 -137 -6 -123 -1 -133 -2 -136 -20 -7 -33 21
-43 107 -38 105 6 211 -5 211 -23 0 -7 -17 -25 -37 -40 -21 -16 -47 -36 -58
-47 -27 -24 -135 -102 -166 -118 -47 -25 -149 -105 -149 -117 0 -7 12 -15 27
-19 16 -3 34 -8 42 -10 8 -3 102 1 210 7 156 9 206 15 244 31 78 33 54 65 -40
53 -27 -3 -77 -10 -113 -15 -129 -18 -220 -21 -220 -7 0 13 39 46 105 88 137
88 217 143 251 173 21 20 45 36 52 36 7 0 12 14 12 35 0 26 -4 35 -17 36 -57
4 -185 4 -188 1z"/>
</g>
</svg>
